<svg xmlns="http://www.w3.org/2000/svg" viewBox="0 0 1285 1295" fill="none">
  <g fill="#3B2861" fill-rule="evenodd">
    <path d="M 509 1121 L 509 1130 L 511 1134 L 517 1138 L 532 1138 L 535 1136 L 541 1136 L 544 1134 L 549 1134 L 552 1132 L 567 1130 L 571 1128 L 614 1128 L 619 1130 L 636 1132 L 639 1134 L 644 1134 L 647 1136 L 652 1136 L 663 1140 L 669 1140 L 672 1142 L 681 1142 L 684 1144 L 697 1144 L 702 1146 L 736 1146 L 741 1144 L 764 1142 L 770 1140 L 776 1134 L 777 1125 L 774 1119 L 770 1115 L 765 1113 L 726 1117 L 708 1117 L 702 1115 L 690 1115 L 685 1113 L 676 1113 L 673 1111 L 665 1111 L 663 1109 L 647 1107 L 645 1105 L 640 1105 L 638 1103 L 631 1103 L 628 1101 L 622 1101 L 618 1099 L 607 1099 L 600 1097 L 578 1097 L 554 1101 L 552 1103 L 546 1103 L 538 1107 L 533 1107 L 521 1111 L 513 1115 Z"/> <path d="M 180 1093 L 175 1097 L 171 1105 L 171 1109 L 175 1118 L 183 1124 L 196 1124 L 204 1116 L 204 1101 L 196 1093 Z"/> <path d="M 1096 1077 L 1089 1081 L 1083 1088 L 1083 1102 L 1085 1106 L 1090 1110 L 1093 1110 L 1095 1112 L 1103 1112 L 1114 1105 L 1116 1102 L 1117 1091 L 1116 1086 L 1112 1081 L 1105 1077 Z"/> <path d="M 846 1055 L 844 1057 L 840 1057 L 833 1063 L 829 1075 L 831 1081 L 839 1090 L 843 1092 L 854 1092 L 864 1085 L 868 1072 L 866 1066 L 860 1059 L 853 1057 L 851 1055 Z"/> <path d="M 421 1053 L 415 1060 L 414 1071 L 417 1078 L 424 1084 L 429 1085 L 441 1084 L 450 1075 L 452 1069 L 448 1057 L 441 1051 L 437 1051 L 435 1049 Z"/> <path d="M 141 903 L 135 911 L 133 922 L 125 937 L 111 949 L 93 955 L 91 958 L 91 963 L 93 966 L 114 976 L 123 985 L 133 1005 L 135 1018 L 140 1024 L 144 1024 L 150 1018 L 154 1002 L 160 989 L 168 980 L 177 974 L 192 968 L 194 966 L 195 960 L 190 955 L 181 953 L 173 949 L 162 939 L 156 930 L 148 905 L 146 903 Z"/> <path d="M 439 908 L 439 916 L 441 920 L 449 928 L 471 942 L 484 948 L 485 950 L 492 952 L 507 960 L 555 976 L 561 976 L 572 980 L 581 980 L 584 982 L 592 982 L 597 984 L 611 984 L 617 986 L 660 986 L 666 984 L 680 984 L 683 982 L 695 982 L 707 978 L 714 978 L 717 976 L 722 976 L 724 974 L 735 972 L 737 970 L 748 968 L 755 964 L 759 964 L 761 962 L 784 954 L 785 952 L 788 952 L 790 950 L 793 950 L 795 948 L 812 942 L 817 942 L 828 938 L 834 938 L 837 936 L 872 936 L 880 930 L 880 918 L 874 911 L 864 907 L 845 907 L 809 913 L 807 915 L 791 919 L 789 921 L 786 921 L 784 923 L 781 923 L 779 925 L 776 925 L 774 927 L 771 927 L 760 933 L 741 939 L 739 941 L 735 941 L 718 947 L 713 947 L 711 949 L 705 949 L 703 951 L 684 953 L 680 955 L 669 955 L 666 957 L 606 957 L 566 951 L 563 949 L 558 949 L 556 947 L 551 947 L 549 945 L 538 943 L 527 937 L 518 935 L 504 927 L 501 927 L 500 925 L 475 913 L 474 911 L 459 903 L 458 901 L 446 901 Z"/> <path d="M 1137 897 L 1133 901 L 1129 916 L 1121 931 L 1106 943 L 1097 945 L 1089 949 L 1089 957 L 1093 960 L 1096 960 L 1102 964 L 1109 966 L 1123 979 L 1131 995 L 1133 1007 L 1138 1012 L 1141 1012 L 1146 1008 L 1150 991 L 1158 977 L 1171 966 L 1174 966 L 1175 964 L 1178 964 L 1180 962 L 1184 962 L 1188 958 L 1188 951 L 1184 947 L 1171 943 L 1158 932 L 1150 918 L 1146 902 L 1142 897 Z"/> <path d="M 790 799 L 781 807 L 779 811 L 779 822 L 781 826 L 790 834 L 805 834 L 814 825 L 816 821 L 816 813 L 812 805 L 804 799 Z"/> <path d="M 890 719 L 881 727 L 879 731 L 879 744 L 881 748 L 888 754 L 893 756 L 903 756 L 912 750 L 916 740 L 916 733 L 912 725 L 907 721 L 902 719 Z"/> <path d="M 435 708 L 431 709 L 427 713 L 423 728 L 413 744 L 402 751 L 394 753 L 391 757 L 391 761 L 394 764 L 402 766 L 403 768 L 411 772 L 421 783 L 429 806 L 437 806 L 440 803 L 440 799 L 442 797 L 444 788 L 454 774 L 476 762 L 476 756 L 473 753 L 460 749 L 454 745 L 448 738 L 442 726 L 442 722 L 438 714 L 438 711 Z"/> <path d="M 1238 613 L 1233 615 L 1223 615 L 1220 617 L 1214 617 L 1191 625 L 1171 637 L 1157 649 L 1143 667 L 1131 693 L 1129 709 L 1127 712 L 1127 735 L 1129 740 L 1131 756 L 1143 783 L 1147 787 L 1149 792 L 1167 810 L 1179 818 L 1191 824 L 1204 828 L 1206 830 L 1221 832 L 1225 834 L 1255 834 L 1262 830 L 1264 827 L 1264 818 L 1260 813 L 1249 807 L 1230 789 L 1220 775 L 1214 763 L 1212 753 L 1210 751 L 1208 732 L 1206 728 L 1208 703 L 1210 701 L 1210 696 L 1212 694 L 1214 684 L 1220 673 L 1230 659 L 1245 644 L 1256 638 L 1262 631 L 1262 623 L 1256 615 L 1251 613 Z"/> <path d="M 1199 653 L 1200 655 L 1187 678 L 1185 689 L 1183 691 L 1183 697 L 1181 700 L 1181 710 L 1179 716 L 1179 726 L 1181 744 L 1183 747 L 1183 754 L 1185 756 L 1187 768 L 1197 788 L 1204 797 L 1203 799 L 1183 787 L 1172 776 L 1164 764 L 1158 751 L 1154 728 L 1156 706 L 1158 704 L 1158 699 L 1164 689 L 1164 686 L 1170 677 L 1185 662 L 1187 662 L 1193 656 Z"/> <path d="M 36 613 L 30 615 L 24 620 L 23 630 L 28 636 L 36 640 L 48 650 L 65 671 L 73 688 L 73 692 L 75 694 L 75 699 L 77 702 L 77 710 L 79 713 L 79 733 L 77 736 L 77 745 L 75 748 L 75 753 L 67 769 L 67 772 L 48 797 L 25 813 L 21 820 L 21 823 L 23 825 L 23 828 L 31 834 L 61 834 L 65 832 L 73 832 L 76 830 L 80 830 L 82 828 L 91 826 L 108 818 L 126 804 L 136 793 L 144 781 L 150 769 L 150 765 L 152 764 L 152 760 L 154 758 L 154 752 L 156 750 L 156 741 L 158 739 L 158 710 L 156 707 L 156 701 L 154 698 L 152 687 L 150 685 L 150 682 L 148 680 L 148 677 L 146 676 L 144 669 L 142 668 L 134 655 L 118 639 L 95 625 L 92 625 L 79 619 L 75 619 L 73 617 Z"/> <path d="M 86 651 L 98 658 L 117 679 L 119 685 L 123 690 L 129 707 L 130 731 L 129 742 L 127 745 L 127 749 L 125 751 L 125 755 L 113 776 L 96 793 L 82 801 L 82 797 L 90 786 L 96 775 L 96 771 L 98 770 L 98 766 L 102 758 L 102 751 L 104 748 L 104 741 L 106 737 L 106 710 L 104 707 L 104 698 L 102 695 L 102 690 L 100 687 L 98 677 L 92 665 L 90 664 L 88 657 L 86 656 Z"/> <path d="M 924 555 L 917 561 L 915 565 L 915 578 L 919 584 L 926 588 L 938 588 L 948 580 L 948 577 L 950 575 L 950 566 L 941 555 Z"/> <path d="M 308 533 L 301 537 L 297 542 L 291 561 L 289 563 L 289 569 L 287 571 L 287 576 L 283 587 L 283 596 L 281 599 L 281 608 L 279 611 L 279 627 L 277 640 L 279 687 L 281 692 L 283 711 L 285 714 L 285 721 L 287 724 L 289 737 L 291 739 L 291 744 L 293 746 L 293 750 L 297 762 L 299 764 L 301 774 L 311 794 L 311 797 L 319 810 L 321 816 L 323 817 L 323 820 L 325 821 L 325 823 L 337 840 L 344 846 L 356 850 L 361 848 L 365 844 L 366 836 L 350 809 L 346 799 L 344 798 L 344 795 L 342 794 L 342 791 L 336 781 L 336 778 L 328 761 L 326 752 L 324 750 L 324 746 L 322 744 L 322 739 L 320 737 L 318 723 L 316 720 L 316 712 L 314 709 L 314 702 L 312 698 L 308 650 L 310 613 L 312 610 L 312 596 L 314 593 L 314 585 L 316 582 L 318 566 L 320 564 L 320 560 L 322 557 L 322 549 L 324 547 L 324 542 L 317 535 L 313 533 Z"/> <path d="M 1161 491 L 1151 498 L 1149 501 L 1147 512 L 1149 517 L 1155 524 L 1164 528 L 1169 528 L 1177 524 L 1182 519 L 1184 515 L 1184 503 L 1182 499 L 1175 493 L 1169 491 Z"/> <path d="M 114 491 L 111 493 L 107 493 L 101 498 L 97 507 L 97 513 L 104 524 L 113 528 L 117 528 L 124 526 L 130 521 L 134 512 L 134 506 L 128 495 L 125 493 Z"/> <path d="M 384 431 L 376 435 L 371 442 L 371 455 L 380 466 L 393 468 L 401 464 L 408 454 L 408 443 L 400 433 L 397 433 L 395 431 Z"/> <path d="M 852 378 L 849 380 L 845 388 L 843 398 L 841 399 L 839 404 L 829 413 L 818 417 L 815 420 L 814 424 L 818 430 L 821 430 L 832 436 L 839 443 L 839 445 L 845 453 L 849 467 L 855 469 L 858 468 L 860 464 L 860 459 L 868 443 L 878 434 L 891 428 L 894 422 L 889 417 L 877 413 L 864 398 L 860 382 L 858 379 Z"/> <path d="M 646 336 L 639 337 L 633 344 L 631 364 L 629 368 L 629 377 L 625 392 L 625 402 L 623 406 L 623 414 L 621 417 L 621 426 L 619 429 L 619 436 L 617 438 L 617 446 L 615 449 L 615 455 L 611 467 L 609 482 L 607 484 L 607 490 L 605 492 L 605 497 L 603 499 L 603 503 L 599 511 L 597 520 L 589 536 L 579 549 L 564 563 L 540 575 L 536 575 L 534 577 L 530 577 L 522 581 L 509 583 L 507 585 L 502 585 L 500 587 L 493 587 L 490 589 L 484 589 L 482 591 L 466 593 L 464 595 L 457 595 L 454 597 L 447 597 L 444 599 L 414 603 L 407 610 L 407 620 L 409 624 L 415 628 L 424 628 L 427 630 L 434 630 L 438 632 L 444 632 L 447 634 L 465 636 L 467 638 L 474 638 L 477 640 L 484 640 L 486 642 L 501 644 L 503 646 L 508 646 L 511 648 L 529 652 L 531 654 L 535 654 L 537 656 L 541 656 L 554 662 L 555 664 L 566 670 L 585 689 L 591 697 L 597 709 L 597 712 L 603 724 L 603 728 L 605 730 L 607 742 L 609 744 L 611 758 L 613 760 L 613 768 L 615 771 L 615 778 L 617 780 L 619 798 L 621 801 L 621 809 L 623 813 L 623 822 L 625 826 L 625 836 L 627 841 L 627 849 L 629 852 L 629 863 L 631 867 L 633 883 L 637 888 L 642 890 L 650 886 L 654 875 L 654 868 L 656 866 L 656 856 L 658 853 L 658 844 L 660 841 L 660 831 L 662 828 L 664 808 L 666 805 L 666 797 L 668 793 L 668 784 L 670 781 L 670 775 L 672 773 L 672 765 L 674 762 L 674 756 L 676 753 L 676 747 L 680 737 L 680 732 L 682 730 L 684 720 L 686 718 L 686 715 L 688 713 L 688 710 L 694 697 L 696 696 L 696 694 L 708 678 L 729 662 L 751 652 L 762 650 L 764 648 L 769 648 L 771 646 L 786 644 L 788 642 L 794 642 L 797 640 L 805 640 L 807 638 L 814 638 L 817 636 L 823 636 L 825 634 L 832 634 L 835 632 L 842 632 L 845 630 L 863 628 L 869 626 L 874 621 L 874 610 L 870 605 L 866 603 L 850 601 L 847 599 L 840 599 L 838 597 L 817 595 L 814 593 L 800 591 L 797 589 L 790 589 L 788 587 L 782 587 L 779 585 L 774 585 L 772 583 L 767 583 L 764 581 L 753 579 L 723 565 L 706 550 L 692 526 L 692 523 L 684 506 L 684 501 L 680 493 L 680 488 L 678 486 L 678 480 L 676 478 L 676 472 L 672 460 L 672 453 L 668 441 L 668 433 L 666 430 L 666 420 L 664 417 L 662 395 L 660 392 L 660 381 L 656 365 L 656 353 L 654 350 L 654 344 L 652 340 Z"/> <path d="M 643 457 L 645 459 L 645 469 L 647 471 L 647 478 L 649 481 L 651 497 L 653 500 L 653 505 L 655 507 L 655 512 L 657 514 L 657 519 L 661 526 L 661 530 L 671 552 L 687 574 L 701 586 L 722 598 L 735 602 L 742 606 L 746 606 L 756 610 L 761 610 L 763 612 L 768 612 L 771 614 L 780 615 L 779 617 L 772 617 L 770 619 L 750 623 L 748 625 L 738 627 L 736 629 L 723 633 L 717 637 L 714 637 L 693 651 L 683 661 L 669 680 L 659 702 L 657 712 L 655 714 L 655 718 L 653 721 L 653 726 L 651 728 L 651 734 L 649 737 L 649 744 L 647 747 L 647 754 L 645 758 L 645 766 L 643 770 L 640 750 L 638 747 L 638 741 L 636 739 L 634 724 L 632 722 L 628 706 L 616 680 L 602 661 L 584 645 L 561 633 L 541 627 L 539 625 L 534 625 L 523 621 L 517 621 L 515 619 L 507 619 L 501 616 L 511 612 L 517 612 L 520 610 L 525 610 L 527 608 L 532 608 L 542 604 L 546 604 L 548 602 L 566 596 L 584 586 L 604 568 L 618 547 L 618 544 L 626 529 L 626 525 L 628 523 L 628 519 L 630 517 L 630 512 L 632 510 L 632 505 L 636 495 L 636 489 L 638 487 L 638 480 L 642 468 Z"/> <path d="M 1098 333 L 1093 337 L 1093 341 L 1087 356 L 1074 367 L 1064 371 L 1062 376 L 1067 382 L 1079 386 L 1087 393 L 1091 400 L 1093 412 L 1098 418 L 1103 418 L 1106 415 L 1112 397 L 1126 384 L 1133 382 L 1136 379 L 1137 374 L 1135 371 L 1121 365 L 1114 358 L 1110 352 L 1110 349 L 1108 348 L 1106 336 L 1103 333 Z"/> <path d="M 197 295 L 193 298 L 193 302 L 191 304 L 191 308 L 185 322 L 174 333 L 159 339 L 157 341 L 157 348 L 169 354 L 172 354 L 173 356 L 178 358 L 187 367 L 193 380 L 195 390 L 197 392 L 204 392 L 208 386 L 210 374 L 216 364 L 221 358 L 226 356 L 227 354 L 238 350 L 242 342 L 236 337 L 228 335 L 216 326 L 208 311 L 206 300 L 204 297 Z"/> <path d="M 988 227 L 984 229 L 977 237 L 977 242 L 975 245 L 977 248 L 977 253 L 981 258 L 988 262 L 1001 262 L 1008 258 L 1012 252 L 1012 237 L 1005 229 L 1001 227 Z"/> <path d="M 415 277 L 414 279 L 412 279 L 380 301 L 349 327 L 307 371 L 273 417 L 273 419 L 255 448 L 255 451 L 247 465 L 247 468 L 245 469 L 245 472 L 241 478 L 241 481 L 233 498 L 233 502 L 231 504 L 231 508 L 229 510 L 229 514 L 227 516 L 225 527 L 223 529 L 223 533 L 221 536 L 221 541 L 219 543 L 219 548 L 215 560 L 215 568 L 213 571 L 211 591 L 209 594 L 209 611 L 207 619 L 207 668 L 209 675 L 211 706 L 213 709 L 213 718 L 215 722 L 217 739 L 219 741 L 219 746 L 221 749 L 221 755 L 223 757 L 225 769 L 227 771 L 227 775 L 233 788 L 237 803 L 259 849 L 285 890 L 315 928 L 325 937 L 333 947 L 336 948 L 341 954 L 357 967 L 355 977 L 353 980 L 353 985 L 351 987 L 351 992 L 349 994 L 349 998 L 347 1000 L 345 1009 L 341 1015 L 341 1018 L 337 1024 L 335 1031 L 323 1052 L 303 1080 L 271 1114 L 257 1137 L 251 1155 L 250 1169 L 251 1187 L 253 1189 L 253 1193 L 255 1195 L 257 1202 L 269 1218 L 288 1230 L 291 1230 L 304 1236 L 315 1238 L 317 1240 L 349 1248 L 356 1248 L 358 1250 L 376 1252 L 379 1254 L 387 1254 L 390 1256 L 398 1256 L 401 1258 L 411 1258 L 414 1260 L 424 1260 L 427 1262 L 437 1262 L 441 1264 L 453 1264 L 457 1266 L 471 1266 L 475 1268 L 510 1270 L 513 1272 L 536 1272 L 542 1274 L 604 1276 L 617 1278 L 680 1278 L 691 1276 L 727 1276 L 738 1274 L 779 1272 L 784 1270 L 799 1270 L 802 1268 L 817 1268 L 820 1266 L 831 1266 L 834 1264 L 847 1264 L 852 1262 L 861 1262 L 864 1260 L 886 1258 L 888 1256 L 909 1254 L 912 1252 L 928 1250 L 930 1248 L 938 1248 L 949 1244 L 955 1244 L 958 1242 L 969 1240 L 971 1238 L 975 1238 L 977 1236 L 988 1234 L 990 1232 L 993 1232 L 1006 1226 L 1024 1210 L 1026 1205 L 1030 1201 L 1032 1192 L 1034 1190 L 1036 1167 L 1034 1163 L 1032 1147 L 1030 1145 L 1030 1142 L 1024 1129 L 1016 1117 L 1004 1103 L 990 1090 L 966 1058 L 964 1053 L 962 1052 L 950 1027 L 948 1026 L 948 1022 L 940 1006 L 940 1002 L 938 1000 L 938 996 L 934 988 L 934 982 L 932 980 L 930 968 L 942 958 L 970 930 L 1000 892 L 1002 887 L 1004 886 L 1006 881 L 1008 880 L 1020 861 L 1022 855 L 1024 854 L 1024 851 L 1026 850 L 1030 840 L 1040 823 L 1040 820 L 1044 814 L 1044 811 L 1054 789 L 1054 785 L 1056 783 L 1056 779 L 1058 777 L 1058 773 L 1060 771 L 1060 767 L 1062 764 L 1062 759 L 1064 758 L 1064 753 L 1066 751 L 1066 745 L 1068 743 L 1070 727 L 1072 725 L 1072 718 L 1074 715 L 1076 691 L 1078 686 L 1080 637 L 1078 626 L 1078 607 L 1076 601 L 1076 589 L 1072 574 L 1072 566 L 1070 563 L 1070 557 L 1068 555 L 1068 548 L 1066 546 L 1064 533 L 1062 530 L 1062 526 L 1060 524 L 1060 519 L 1058 517 L 1054 501 L 1052 500 L 1050 490 L 1044 479 L 1042 471 L 1036 461 L 1036 458 L 1030 449 L 1022 432 L 1018 428 L 1016 422 L 994 390 L 966 356 L 939 329 L 935 327 L 930 321 L 903 299 L 901 299 L 892 291 L 871 277 L 865 275 L 864 273 L 851 267 L 846 263 L 838 259 L 835 259 L 830 255 L 827 255 L 821 251 L 818 251 L 812 247 L 809 247 L 802 243 L 798 243 L 791 239 L 787 239 L 785 237 L 781 237 L 773 233 L 762 231 L 760 229 L 754 229 L 752 227 L 746 227 L 743 225 L 737 225 L 725 221 L 717 221 L 714 219 L 705 219 L 701 217 L 686 217 L 681 215 L 626 214 L 602 215 L 598 217 L 570 219 L 568 221 L 559 221 L 556 223 L 550 223 L 548 225 L 533 227 L 531 229 L 526 229 L 524 231 L 519 231 L 517 233 L 513 233 L 495 239 L 493 241 L 489 241 L 487 243 L 469 249 L 463 253 L 460 253 L 450 259 L 447 259 L 446 261 Z"/> <path d="M 283 1163 L 286 1148 L 295 1136 L 299 1134 L 338 1134 L 343 1136 L 350 1136 L 353 1138 L 361 1138 L 363 1140 L 369 1140 L 386 1146 L 390 1146 L 392 1148 L 401 1150 L 403 1152 L 411 1154 L 413 1156 L 416 1156 L 418 1158 L 421 1158 L 423 1160 L 426 1160 L 433 1164 L 456 1172 L 458 1174 L 462 1174 L 463 1176 L 466 1176 L 468 1178 L 472 1178 L 474 1180 L 483 1182 L 490 1186 L 507 1190 L 509 1192 L 513 1192 L 521 1196 L 526 1196 L 528 1198 L 534 1198 L 537 1200 L 555 1202 L 557 1204 L 565 1204 L 570 1206 L 576 1206 L 586 1200 L 588 1196 L 588 1186 L 582 1179 L 579 1179 L 577 1177 L 550 1173 L 548 1171 L 528 1167 L 526 1165 L 522 1165 L 514 1161 L 502 1159 L 500 1157 L 497 1157 L 490 1153 L 486 1153 L 469 1145 L 465 1145 L 436 1131 L 433 1131 L 411 1121 L 407 1121 L 400 1117 L 396 1117 L 394 1115 L 389 1115 L 387 1113 L 382 1113 L 379 1111 L 373 1111 L 371 1109 L 364 1109 L 361 1107 L 325 1104 L 334 1094 L 346 1075 L 348 1074 L 358 1054 L 362 1049 L 368 1036 L 368 1033 L 374 1022 L 374 1018 L 378 1010 L 380 998 L 382 996 L 382 990 L 384 987 L 430 1016 L 446 1024 L 449 1024 L 459 1030 L 462 1030 L 463 1032 L 467 1032 L 469 1034 L 488 1040 L 490 1042 L 501 1044 L 503 1046 L 508 1046 L 510 1048 L 514 1048 L 517 1050 L 530 1052 L 533 1054 L 549 1056 L 551 1058 L 560 1058 L 564 1060 L 573 1060 L 577 1062 L 589 1062 L 593 1064 L 615 1064 L 621 1066 L 671 1066 L 676 1064 L 696 1064 L 700 1062 L 713 1062 L 717 1060 L 737 1058 L 740 1056 L 748 1056 L 751 1054 L 772 1050 L 774 1048 L 778 1048 L 786 1044 L 792 1044 L 794 1042 L 810 1038 L 812 1036 L 825 1032 L 831 1028 L 839 1026 L 845 1022 L 848 1022 L 849 1020 L 852 1020 L 857 1016 L 867 1012 L 880 1004 L 881 1002 L 893 996 L 900 990 L 902 990 L 905 995 L 905 1000 L 907 1003 L 911 1019 L 929 1058 L 937 1072 L 945 1082 L 945 1084 L 962 1104 L 928 1107 L 925 1109 L 918 1109 L 915 1111 L 908 1111 L 906 1113 L 893 1115 L 891 1117 L 887 1117 L 885 1119 L 882 1119 L 880 1121 L 857 1129 L 842 1137 L 839 1137 L 837 1139 L 834 1139 L 832 1141 L 829 1141 L 827 1143 L 824 1143 L 802 1153 L 792 1155 L 785 1159 L 781 1159 L 779 1161 L 762 1165 L 760 1167 L 756 1167 L 753 1169 L 748 1169 L 745 1171 L 739 1171 L 727 1175 L 718 1175 L 715 1177 L 704 1179 L 699 1183 L 697 1187 L 697 1197 L 703 1204 L 708 1206 L 721 1206 L 724 1204 L 732 1204 L 736 1202 L 752 1200 L 754 1198 L 772 1194 L 780 1190 L 784 1190 L 786 1188 L 802 1184 L 814 1178 L 818 1178 L 820 1176 L 828 1174 L 829 1172 L 838 1170 L 848 1164 L 851 1164 L 862 1158 L 865 1158 L 872 1154 L 876 1154 L 888 1148 L 892 1148 L 894 1146 L 898 1146 L 907 1142 L 912 1142 L 914 1140 L 950 1134 L 983 1134 L 987 1136 L 995 1143 L 1001 1153 L 1001 1157 L 1003 1159 L 1003 1176 L 995 1190 L 990 1195 L 981 1201 L 973 1203 L 966 1207 L 945 1211 L 942 1213 L 936 1213 L 933 1215 L 918 1217 L 914 1219 L 907 1219 L 905 1221 L 897 1221 L 882 1225 L 872 1225 L 869 1227 L 860 1227 L 857 1229 L 850 1229 L 846 1231 L 821 1233 L 815 1235 L 804 1235 L 800 1237 L 787 1237 L 783 1239 L 746 1241 L 739 1243 L 716 1243 L 709 1245 L 587 1245 L 576 1243 L 544 1243 L 539 1241 L 522 1241 L 517 1239 L 500 1239 L 496 1237 L 465 1235 L 462 1233 L 451 1233 L 448 1231 L 425 1229 L 422 1227 L 413 1227 L 410 1225 L 402 1225 L 398 1223 L 379 1221 L 376 1219 L 369 1219 L 367 1217 L 360 1217 L 349 1213 L 334 1211 L 332 1209 L 320 1207 L 299 1197 L 290 1188 L 284 1177 Z"/> <path d="M 599 248 L 629 248 L 640 246 L 652 246 L 659 248 L 684 248 L 688 250 L 699 250 L 703 252 L 712 252 L 715 254 L 724 254 L 727 256 L 742 258 L 744 260 L 749 260 L 751 262 L 756 262 L 758 264 L 763 264 L 776 270 L 786 272 L 788 274 L 801 278 L 807 282 L 810 282 L 848 302 L 884 326 L 900 340 L 902 340 L 937 374 L 965 407 L 965 409 L 975 421 L 975 423 L 979 427 L 985 438 L 987 439 L 1009 481 L 1009 484 L 1013 490 L 1019 509 L 1023 516 L 1023 520 L 1027 528 L 1031 546 L 1033 548 L 1033 553 L 1035 555 L 1037 572 L 1039 574 L 1039 582 L 1041 585 L 1041 595 L 1043 599 L 1043 614 L 1045 619 L 1045 674 L 1043 681 L 1041 708 L 1039 712 L 1039 719 L 1037 722 L 1037 729 L 1035 732 L 1035 737 L 1033 739 L 1033 744 L 1031 747 L 1029 758 L 1027 760 L 1027 764 L 1023 771 L 1023 775 L 1021 777 L 1019 786 L 1011 802 L 1009 810 L 1007 811 L 1007 814 L 1003 819 L 1003 822 L 1001 823 L 1001 826 L 999 827 L 991 844 L 973 872 L 969 876 L 969 878 L 943 910 L 922 931 L 888 959 L 883 961 L 882 963 L 880 963 L 876 967 L 854 981 L 833 991 L 832 993 L 829 993 L 810 1003 L 806 1003 L 800 1007 L 791 1009 L 789 1011 L 785 1011 L 783 1013 L 779 1013 L 777 1015 L 773 1015 L 763 1019 L 758 1019 L 755 1021 L 740 1023 L 738 1025 L 729 1025 L 726 1027 L 717 1027 L 715 1029 L 683 1031 L 679 1033 L 615 1033 L 607 1031 L 587 1031 L 584 1029 L 573 1029 L 569 1027 L 560 1027 L 558 1025 L 540 1023 L 537 1021 L 532 1021 L 529 1019 L 523 1019 L 521 1017 L 510 1015 L 508 1013 L 498 1011 L 496 1009 L 473 1001 L 437 983 L 393 955 L 385 947 L 383 947 L 369 935 L 340 906 L 314 874 L 294 844 L 276 810 L 276 807 L 272 801 L 272 798 L 268 792 L 266 783 L 264 782 L 264 778 L 260 771 L 260 766 L 258 764 L 256 752 L 254 750 L 254 745 L 252 743 L 252 737 L 250 735 L 248 718 L 246 715 L 246 707 L 244 704 L 244 691 L 242 688 L 242 671 L 240 660 L 240 619 L 242 614 L 244 585 L 246 582 L 246 574 L 248 572 L 252 548 L 254 546 L 254 541 L 256 539 L 256 534 L 258 532 L 258 528 L 260 526 L 264 510 L 266 508 L 272 490 L 276 484 L 276 481 L 296 443 L 298 442 L 300 437 L 322 405 L 340 385 L 342 381 L 379 344 L 415 316 L 417 316 L 421 312 L 423 312 L 444 298 L 454 294 L 455 292 L 458 292 L 459 290 L 462 290 L 463 288 L 466 288 L 467 286 L 470 286 L 471 284 L 474 284 L 475 282 L 478 282 L 484 278 L 492 276 L 498 272 L 507 270 L 514 266 L 518 266 L 520 264 L 525 264 L 527 262 L 540 260 L 543 258 L 549 258 L 551 256 L 558 256 L 561 254 L 568 254 L 571 252 L 580 252 L 583 250 L 596 250 Z"/> <path d="M 309 183 L 301 187 L 295 194 L 295 208 L 303 218 L 307 220 L 318 220 L 325 216 L 332 206 L 332 199 L 330 193 L 322 185 L 319 185 L 317 183 Z"/> <path d="M 629 135 L 623 141 L 621 146 L 621 154 L 626 162 L 633 166 L 643 166 L 645 164 L 648 164 L 654 157 L 654 144 L 647 135 L 641 133 Z"/> <path d="M 846 67 L 843 69 L 841 73 L 839 86 L 831 100 L 816 113 L 813 113 L 798 121 L 796 126 L 799 131 L 805 132 L 818 138 L 829 147 L 837 158 L 839 166 L 841 168 L 843 179 L 847 184 L 853 185 L 858 180 L 862 163 L 870 149 L 887 136 L 894 134 L 895 132 L 898 132 L 901 126 L 899 121 L 885 115 L 884 113 L 881 113 L 870 104 L 864 93 L 862 92 L 856 71 L 852 67 Z"/> <path d="M 449 45 L 443 51 L 443 55 L 441 57 L 439 66 L 435 72 L 433 79 L 427 87 L 415 97 L 403 103 L 395 105 L 393 107 L 392 114 L 396 118 L 412 124 L 429 138 L 435 145 L 435 148 L 439 154 L 441 164 L 443 166 L 443 170 L 445 173 L 445 177 L 448 180 L 453 181 L 457 180 L 460 177 L 462 172 L 462 165 L 474 141 L 483 132 L 495 124 L 509 118 L 512 114 L 512 110 L 502 103 L 498 103 L 496 101 L 493 101 L 492 99 L 489 99 L 474 86 L 464 68 L 464 64 L 462 62 L 460 54 L 460 49 L 456 45 Z"/> <path d="M 631 24 L 625 32 L 625 46 L 634 54 L 644 55 L 652 52 L 658 45 L 658 32 L 654 26 L 646 21 L 638 21 Z"/>
  </g>
</svg>